<?xml version="1.0" standalone="no"?>
<!DOCTYPE svg PUBLIC "-//W3C//DTD SVG 20010904//EN"
 "http://www.w3.org/TR/2001/REC-SVG-20010904/DTD/svg10.dtd">
<svg version="1.0" xmlns="http://www.w3.org/2000/svg"
 width="16.000000pt" height="16.000000pt" viewBox="0 0 16.000000 16.000000"
 preserveAspectRatio="xMidYMid meet">
<metadata>
Created by potrace 1.11, written by Peter Selinger 2001-2013
</metadata>
<g transform="translate(0.000000,16.000000) scale(0.003125,-0.003125)"
fill="#000000" stroke="none">
<path d="M1920 3040 l0 -1920 80 0 80 0 0 994 0 993 63 28 c97 42 124 54 162
70 19 8 50 21 68 29 17 8 113 49 212 91 99 42 194 83 210 90 17 8 59 26 95 41
36 14 83 35 105 45 22 10 105 45 185 79 80 34 159 67 175 75 17 7 75 32 130
55 55 23 118 50 140 60 22 10 90 39 150 64 61 26 128 55 150 65 22 10 82 36
133 57 50 21 92 41 92 44 0 7 -102 50 -117 50 -7 0 -13 5 -13 10 0 6 -5 10
-11 10 -7 0 -446 186 -978 414 -531 227 -999 428 -1038 444 l-73 31 0 -1919z"/>
<path d="M2370 1914 c-8 -2 -40 -5 -70 -6 l-55 -3 -3 -255 -2 -255 31 -19
c134 -79 165 -188 82 -286 -112 -130 -397 -168 -598 -79 -50 22 -114 78 -134
117 -43 84 -10 170 90 235 l49 32 0 218 c0 119 -3 217 -7 217 -5 0 -60 -13
-123 -29 -315 -80 -555 -196 -696 -336 -95 -94 -128 -162 -129 -265 0 -104 32
-170 128 -264 233 -229 742 -395 1357 -443 188 -15 679 -8 830 12 14 1 47 5
73 9 26 3 68 9 95 12 151 18 493 100 597 144 11 4 38 15 60 23 196 73 369 188
458 305 56 73 77 134 73 216 -9 185 -185 350 -521 489 -87 36 -268 93 -330
104 -11 2 -38 8 -60 14 -22 6 -49 13 -60 15 -126 25 -293 50 -386 59 -36 4
-79 9 -95 11 -33 5 -631 13 -654 8z m1040 -501 c64 -29 101 -72 107 -125 5
-39 2 -47 -33 -86 -95 -105 -311 -107 -409 -3 -25 27 -30 41 -30 81 0 42 5 54
35 84 18 20 57 45 85 55 66 26 181 23 245 -6z"/>
</g>
</svg>
